<svg width="145" height="23" viewBox="0 0 145 23" fill="none" xmlns="http://www.w3.org/2000/svg">
<path d="M0.992188 17.9999V1.19989H8.62419C10.4482 1.19989 12.0562 1.55189 13.4482 2.2559C14.8402 2.94389 15.9282 3.9119 16.7122 5.1599C17.4962 6.4079 17.8882 7.8879 17.8882 9.5999C17.8882 11.2959 17.4962 12.7759 16.7122 14.0399C15.9282 15.2879 14.8402 16.2639 13.4482 16.9679C12.0562 17.6559 10.4482 17.9999 8.62419 17.9999H0.992188ZM4.88019 14.8079H8.43219C9.55219 14.8079 10.5202 14.5999 11.3362 14.1839C12.1682 13.7519 12.8082 13.1439 13.2562 12.3599C13.7202 11.5759 13.9522 10.6559 13.9522 9.5999C13.9522 8.52789 13.7202 7.60789 13.2562 6.83989C12.8082 6.0559 12.1682 5.45589 11.3362 5.03989C10.5202 4.60789 9.55219 4.39189 8.43219 4.39189H4.88019V14.8079Z" fill="white"/>
<path d="M26.0043 18.1919C24.9323 18.1919 23.9723 17.9839 23.1243 17.5679C22.2923 17.1519 21.6443 16.5199 21.1803 15.6719C20.7163 14.8079 20.4843 13.7119 20.4843 12.3839V5.08789H24.2283V11.8319C24.2283 12.9039 24.4523 13.6959 24.9003 14.2079C25.3643 14.7039 26.0123 14.9519 26.8443 14.9519C27.4203 14.9519 27.9323 14.8319 28.3803 14.5919C28.8283 14.3359 29.1803 13.9519 29.4363 13.4399C29.6923 12.9119 29.8203 12.2559 29.8203 11.4719V5.08789H33.5643V17.9999H30.0123V14.4479L30.6603 15.4799C30.2283 16.3759 29.5883 17.0559 28.7403 17.5199C27.9083 17.9679 26.9963 18.1919 26.0043 18.1919Z" fill="white"/>
<path d="M42.5769 18.1919C41.3609 18.1919 40.2649 17.9199 39.2889 17.3759C38.3129 16.8159 37.5369 16.0399 36.9609 15.0479C36.4009 14.0559 36.1209 12.8879 36.1209 11.5439C36.1209 10.1839 36.4009 9.0079 36.9609 8.0159C37.5369 7.0239 38.3129 6.2559 39.2889 5.7119C40.2649 5.1679 41.3609 4.8959 42.5769 4.8959C43.6649 4.8959 44.6169 5.1359 45.4329 5.61589C46.2489 6.09589 46.8809 6.82389 47.3289 7.79989C47.7769 8.77589 48.0009 10.0239 48.0009 11.5439C48.0009 13.0479 47.7849 14.2959 47.3529 15.2879C46.9209 16.2639 46.2969 16.9919 45.4809 17.4719C44.6809 17.9519 43.7129 18.1919 42.5769 18.1919ZM43.2249 15.1199C43.8329 15.1199 44.3849 14.9759 44.8809 14.6879C45.3769 14.3999 45.7689 13.9919 46.0569 13.4639C46.3609 12.9199 46.5129 12.2799 46.5129 11.5439C46.5129 10.7919 46.3609 10.1519 46.0569 9.6239C45.7689 9.0959 45.3769 8.68789 44.8809 8.39989C44.3849 8.11189 43.8329 7.9679 43.2249 7.9679C42.6009 7.9679 42.0409 8.11189 41.5449 8.39989C41.0489 8.68789 40.6489 9.0959 40.3449 9.6239C40.0569 10.1519 39.9129 10.7919 39.9129 11.5439C39.9129 12.2799 40.0569 12.9199 40.3449 13.4639C40.6489 13.9919 41.0489 14.3999 41.5449 14.6879C42.0409 14.9759 42.6009 15.1199 43.2249 15.1199ZM46.6089 17.9999V15.3599L46.6809 11.5199L46.4409 7.7039V0.191895H50.1849V17.9999H46.6089Z" fill="white"/>
<path d="M60.0581 18.1919C58.5861 18.1919 57.2901 17.9039 56.1701 17.3279C55.0661 16.7519 54.2101 15.9679 53.6021 14.9759C52.9941 13.9679 52.6901 12.8239 52.6901 11.5439C52.6901 10.2479 52.9861 9.1039 53.5781 8.1119C54.1861 7.1039 55.0101 6.31989 56.0501 5.75989C57.0901 5.18389 58.2661 4.8959 59.5781 4.8959C60.8421 4.8959 61.9781 5.1679 62.9861 5.7119C64.0101 6.2399 64.8181 7.00789 65.4101 8.0159C66.0021 9.0079 66.2981 10.1999 66.2981 11.5919C66.2981 11.7359 66.2901 11.9039 66.2741 12.0959C66.2581 12.2719 66.2421 12.4399 66.2261 12.5999H55.7381V10.4159H64.2581L62.8181 11.0639C62.8181 10.3919 62.6821 9.8079 62.4101 9.3119C62.1381 8.8159 61.7621 8.4319 61.2821 8.1599C60.8021 7.8719 60.2421 7.72789 59.6021 7.72789C58.9621 7.72789 58.3941 7.8719 57.8981 8.1599C57.4181 8.4319 57.0421 8.8239 56.7701 9.3359C56.4981 9.8319 56.3621 10.4239 56.3621 11.1119V11.6879C56.3621 12.3919 56.5141 13.0159 56.8181 13.5599C57.1381 14.0879 57.5781 14.4959 58.1381 14.7839C58.7141 15.0559 59.3861 15.1919 60.1541 15.1919C60.8421 15.1919 61.4421 15.0879 61.9541 14.8799C62.4821 14.6719 62.9621 14.3599 63.3941 13.9439L65.3861 16.1039C64.7941 16.7759 64.0501 17.2959 63.1541 17.6639C62.2581 18.0159 61.2261 18.1919 60.0581 18.1919Z" fill="white"/>
<path d="M74.5747 18.2879C73.2307 18.2879 71.9427 18.1119 70.7107 17.7599C69.4787 17.3919 68.4867 16.9199 67.7347 16.3439L69.0547 13.4159C69.7747 13.9279 70.6227 14.3519 71.5987 14.6879C72.5907 15.0079 73.5907 15.1679 74.5987 15.1679C75.3667 15.1679 75.9827 15.0959 76.4467 14.9519C76.9267 14.7919 77.2787 14.5759 77.5027 14.3039C77.7267 14.0319 77.8387 13.7199 77.8387 13.3679C77.8387 12.9199 77.6627 12.5679 77.3107 12.3119C76.9587 12.0399 76.4947 11.8239 75.9187 11.6639C75.3427 11.4879 74.7027 11.3279 73.9987 11.1839C73.3107 11.0239 72.6147 10.8319 71.9107 10.6079C71.2227 10.3839 70.5907 10.0959 70.0147 9.74389C69.4387 9.39189 68.9667 8.92789 68.5987 8.35189C68.2467 7.77589 68.0707 7.03989 68.0707 6.14389C68.0707 5.18389 68.3267 4.31189 68.8387 3.52789C69.3667 2.72789 70.1507 2.09589 71.1907 1.63189C72.2467 1.1519 73.5667 0.911895 75.1507 0.911895C76.2067 0.911895 77.2467 1.0399 78.2707 1.29589C79.2947 1.53589 80.1987 1.90389 80.9827 2.39989L79.7827 5.35189C78.9987 4.90389 78.2147 4.5759 77.4307 4.3679C76.6467 4.1439 75.8787 4.0319 75.1267 4.0319C74.3747 4.0319 73.7587 4.1199 73.2787 4.2959C72.7987 4.4719 72.4547 4.7039 72.2467 4.99189C72.0387 5.26389 71.9347 5.5839 71.9347 5.9519C71.9347 6.3839 72.1107 6.7359 72.4627 7.00789C72.8147 7.2639 73.2787 7.4719 73.8547 7.6319C74.4307 7.7919 75.0627 7.9519 75.7507 8.1119C76.4547 8.2719 77.1507 8.45589 77.8387 8.66389C78.5427 8.87189 79.1827 9.15189 79.7587 9.50389C80.3347 9.85589 80.7987 10.3199 81.1507 10.8959C81.5187 11.4719 81.7027 12.1999 81.7027 13.0799C81.7027 14.0239 81.4387 14.8879 80.9107 15.6719C80.3827 16.4559 79.5907 17.0879 78.5347 17.5679C77.4947 18.0479 76.1747 18.2879 74.5747 18.2879Z" fill="white"/>
<path d="M91.9434 4.8959C92.9674 4.8959 93.8794 5.10389 94.6794 5.51989C95.4954 5.91989 96.1354 6.54389 96.5994 7.39189C97.0634 8.2239 97.2954 9.29589 97.2954 10.6079V17.9999H93.5514V11.1839C93.5514 10.1439 93.3194 9.37589 92.8554 8.87989C92.4074 8.38389 91.7674 8.1359 90.9354 8.1359C90.3434 8.1359 89.8074 8.2639 89.3274 8.5199C88.8634 8.7599 88.4954 9.1359 88.2234 9.6479C87.9674 10.1599 87.8394 10.8159 87.8394 11.6159V17.9999H84.0954V0.191895H87.8394V8.66389L86.9994 7.5839C87.4634 6.71989 88.1274 6.05589 88.9914 5.59189C89.8554 5.12789 90.8394 4.8959 91.9434 4.8959Z" fill="white"/>
<path d="M108.609 17.9999V15.4799L108.369 14.9279V10.4159C108.369 9.6159 108.121 8.9919 107.625 8.5439C107.145 8.0959 106.401 7.8719 105.393 7.8719C104.705 7.8719 104.025 7.9839 103.353 8.2079C102.697 8.4159 102.137 8.7039 101.673 9.0719L100.329 6.45589C101.033 5.9599 101.881 5.57589 102.873 5.30389C103.865 5.0319 104.873 4.8959 105.897 4.8959C107.865 4.8959 109.393 5.3599 110.481 6.28789C111.569 7.2159 112.113 8.66389 112.113 10.6319V17.9999H108.609ZM104.673 18.1919C103.665 18.1919 102.801 18.0239 102.081 17.6879C101.361 17.3359 100.809 16.8639 100.425 16.2719C100.041 15.6799 99.8491 15.0159 99.8491 14.2799C99.8491 13.5119 100.033 12.8399 100.401 12.2639C100.785 11.6879 101.385 11.2399 102.201 10.9199C103.017 10.5839 104.081 10.4159 105.393 10.4159H108.825V12.5999H105.801C104.921 12.5999 104.313 12.7439 103.977 13.0319C103.657 13.3199 103.497 13.6799 103.497 14.1119C103.497 14.5919 103.681 14.9759 104.049 15.2639C104.433 15.5359 104.953 15.6719 105.609 15.6719C106.233 15.6719 106.793 15.5279 107.289 15.2399C107.785 14.9359 108.145 14.4959 108.369 13.9199L108.945 15.6479C108.673 16.4799 108.177 17.1119 107.457 17.5439C106.737 17.9759 105.809 18.1919 104.673 18.1919Z" fill="white"/>
<path d="M123.134 18.1919C122.046 18.1919 121.094 17.9519 120.278 17.4719C119.462 16.9919 118.822 16.2639 118.358 15.2879C117.91 14.2959 117.686 13.0479 117.686 11.5439C117.686 10.0239 117.902 8.77589 118.334 7.79989C118.766 6.82389 119.39 6.09589 120.206 5.61589C121.022 5.1359 121.998 4.8959 123.134 4.8959C124.35 4.8959 125.438 5.1759 126.398 5.73589C127.374 6.27989 128.142 7.04789 128.702 8.03989C129.278 9.03189 129.566 10.1999 129.566 11.5439C129.566 12.9039 129.278 14.0799 128.702 15.0719C128.142 16.0639 127.374 16.8319 126.398 17.3759C125.438 17.9199 124.35 18.1919 123.134 18.1919ZM115.502 22.6559V5.08789H119.078V7.72789L119.006 11.5679L119.246 15.3839V22.6559H115.502ZM122.486 15.1199C123.11 15.1199 123.662 14.9759 124.142 14.6879C124.638 14.3999 125.03 13.9919 125.318 13.4639C125.622 12.9199 125.774 12.2799 125.774 11.5439C125.774 10.7919 125.622 10.1519 125.318 9.6239C125.03 9.0959 124.638 8.68789 124.142 8.39989C123.662 8.11189 123.11 7.9679 122.486 7.9679C121.862 7.9679 121.302 8.11189 120.806 8.39989C120.31 8.68789 119.918 9.0959 119.63 9.6239C119.342 10.1519 119.198 10.7919 119.198 11.5439C119.198 12.2799 119.342 12.9199 119.63 13.4639C119.918 13.9919 120.31 14.3999 120.806 14.6879C121.302 14.9759 121.862 15.1199 122.486 15.1199Z" fill="white"/>
<path d="M138.48 18.1919C137.008 18.1919 135.712 17.9039 134.592 17.3279C133.488 16.7519 132.632 15.9679 132.024 14.9759C131.416 13.9679 131.112 12.8239 131.112 11.5439C131.112 10.2479 131.408 9.1039 132 8.1119C132.608 7.1039 133.432 6.31989 134.472 5.75989C135.512 5.18389 136.688 4.8959 138 4.8959C139.264 4.8959 140.4 5.1679 141.408 5.7119C142.432 6.2399 143.24 7.00789 143.832 8.0159C144.424 9.0079 144.72 10.1999 144.72 11.5919C144.72 11.7359 144.712 11.9039 144.696 12.0959C144.68 12.2719 144.664 12.4399 144.648 12.5999H134.16V10.4159H142.68L141.24 11.0639C141.24 10.3919 141.104 9.8079 140.832 9.3119C140.56 8.8159 140.184 8.4319 139.704 8.1599C139.224 7.8719 138.664 7.72789 138.024 7.72789C137.384 7.72789 136.816 7.8719 136.32 8.1599C135.84 8.4319 135.464 8.8239 135.192 9.3359C134.92 9.8319 134.784 10.4239 134.784 11.1119V11.6879C134.784 12.3919 134.936 13.0159 135.24 13.5599C135.56 14.0879 136 14.4959 136.56 14.7839C137.136 15.0559 137.808 15.1919 138.576 15.1919C139.264 15.1919 139.864 15.0879 140.376 14.8799C140.904 14.6719 141.384 14.3599 141.816 13.9439L143.808 16.1039C143.216 16.7759 142.472 17.2959 141.576 17.6639C140.68 18.0159 139.648 18.1919 138.48 18.1919Z" fill="white"/>
</svg>
